<svg height="200px" width="200px" version="1.1" id="Layer_1" xmlns="http://www.w3.org/2000/svg" xmlns:xlink="http://www.w3.org/1999/xlink" viewBox="0 0 528 528" xml:space="preserve" fill="#9f9f9f"><g id="SVGRepo_bgCarrier" stroke-width="0"></g><g id="SVGRepo_tracerCarrier" stroke-linecap="round" stroke-linejoin="round"></g><g id="SVGRepo_iconCarrier"> <path style="fill:#ffffff;" d="M264,511.624c136.752,0,248-111.088,248-247.624S400.752,16.376,264,16.376S16,127.464,16,264 S127.248,511.624,264,511.624z M192.496,154.928l195.624,104.44L192.496,363.8V154.928z"></path> <path style="fill:'#9f9f9f';" d="M264,527.624c145.568,0,264-118.256,264-263.624S409.568,0.376,264,0.376S0,118.632,0,264 S118.432,527.624,264,527.624z M264,16.376c136.752,0,248,111.088,248,247.624S400.752,511.624,264,511.624S16,400.536,16,264 S127.248,16.376,264,16.376z"></path> <polygon style="fill:#000000;" points="192.496,154.928 192.496,363.8 388.12,259.368 "></polygon> </g></svg>
