<!-- <svg viewBox="0 0 24 24" fill="none" xmlns="http://www.w3.org/2000/svg">
  <g id="SVGRepo_bgCarrier" stroke-width="0"></g>
  <g
    id="SVGRepo_tracerCarrier"
    stroke-linecap="round"
    stroke-linejoin="round"
  ></g>
  <g id="SVGRepo_iconCarrier">
    {" "}
    <path
      d="M11.5003 12H5.41872M5.24634 12.7972L4.24158 15.7986C3.69128 17.4424 3.41613 18.2643 3.61359 18.7704C3.78506 19.21 4.15335 19.5432 4.6078 19.6701C5.13111 19.8161 5.92151 19.4604 7.50231 18.7491L17.6367 14.1886C19.1797 13.4942 19.9512 13.1471 20.1896 12.6648C20.3968 12.2458 20.3968 11.7541 20.1896 11.3351C19.9512 10.8529 19.1797 10.5057 17.6367 9.81135L7.48483 5.24303C5.90879 4.53382 5.12078 4.17921 4.59799 4.32468C4.14397 4.45101 3.77572 4.78336 3.60365 5.22209C3.40551 5.72728 3.67772 6.54741 4.22215 8.18767L5.24829 11.2793C5.34179 11.561 5.38855 11.7019 5.407 11.8459C5.42338 11.9738 5.42321 12.1032 5.40651 12.231C5.38768 12.375 5.34057 12.5157 5.24634 12.7972Z"
      stroke="#ffffff"
      stroke-width="2"
      stroke-linecap="round"
      stroke-linejoin="round"
    ></path>{" "}
  </g>
</svg>; -->
<!-- <svg viewBox="0 0 24 24" fill="none" xmlns="http://www.w3.org/2000/svg"><g id="SVGRepo_bgCarrier" stroke-width="0"></g><g id="SVGRepo_tracerCarrier" stroke-linecap="round" stroke-linejoin="round"></g><g id="SVGRepo_iconCarrier"> <path d="M10.3009 13.6949L20.102 3.89742M10.5795 14.1355L12.8019 18.5804C13.339 19.6545 13.6075 20.1916 13.9458 20.3356C14.2394 20.4606 14.575 20.4379 14.8492 20.2747C15.1651 20.0866 15.3591 19.5183 15.7472 18.3818L19.9463 6.08434C20.2845 5.09409 20.4535 4.59896 20.3378 4.27142C20.2371 3.98648 20.013 3.76234 19.7281 3.66167C19.4005 3.54595 18.9054 3.71502 17.9151 4.05315L5.61763 8.2523C4.48114 8.64037 3.91289 8.83441 3.72478 9.15032C3.56153 9.42447 3.53891 9.76007 3.66389 10.0536C3.80791 10.3919 4.34498 10.6605 5.41912 11.1975L9.86397 13.42C10.041 13.5085 10.1295 13.5527 10.2061 13.6118C10.2742 13.6643 10.3352 13.7253 10.3876 13.7933C10.4468 13.87 10.491 13.9585 10.5795 14.1355Z" stroke="#fff" stroke-width="2" stroke-linecap="round" stroke-linejoin="round"></path> </g></svg> -->
<svg viewBox="0 0 24 24" fill="none" xmlns="http://www.w3.org/2000/svg"><g id="SVGRepo_bgCarrier" stroke-width="0"></g><g id="SVGRepo_tracerCarrier" stroke-linecap="round" stroke-linejoin="round"></g><g id="SVGRepo_iconCarrier"> <path d="M20.7639 12H10.0556M3 8.00003H5.5M4 12H5.5M4.5 16H5.5M9.96153 12.4896L9.07002 15.4486C8.73252 16.5688 8.56376 17.1289 8.70734 17.4633C8.83199 17.7537 9.08656 17.9681 9.39391 18.0415C9.74792 18.1261 10.2711 17.8645 11.3175 17.3413L19.1378 13.4311C20.059 12.9705 20.5197 12.7402 20.6675 12.4285C20.7961 12.1573 20.7961 11.8427 20.6675 11.5715C20.5197 11.2598 20.059 11.0295 19.1378 10.5689L11.3068 6.65342C10.2633 6.13168 9.74156 5.87081 9.38789 5.95502C9.0808 6.02815 8.82627 6.24198 8.70128 6.53184C8.55731 6.86569 8.72427 7.42461 9.05819 8.54246L9.96261 11.5701C10.0137 11.7411 10.0392 11.8266 10.0493 11.9137C10.0583 11.991 10.0582 12.069 10.049 12.1463C10.0387 12.2334 10.013 12.3188 9.96153 12.4896Z" stroke="#fff" stroke-width="2" stroke-linecap="round" stroke-linejoin="round"></path> </g></svg>